:SAMPLES-PER-SECOND 30
:FULLY-SPECIFIED
:DEGREES
327
root  -17.9196 35.3255 20.8097 176.404 32.8375 178.524
RightUpLeg  -24.8853 -17.5317 -10.6425
RightLeg  81.7754 -0.866878 -9.70411
RightFoot  -6.92435 -0.305426 6.85285
RightToes  0.000482159 0.542163 -0.142577
Spine  39.5735 1.6214 11.6788
Spine1  -3.73725 5.48295 1.65288
HEad  -52.7376 35.8276 -29.5471
LeftShoulder1  10.7306 -15.345 -49.7089
LeftArm  -14.9675 13.5603 -23.1098
LeftForeArm  51.8125 -50.3342 -9.63033
LeftHand  -0.25398 0.0180481 5.50724
RightShoulder  5.24449 10.1058 32.5934
RightArm  -10.8577 -8.22886 35.4578
RightForeArm  42.5589 76.5508 50.8189
RightHand  -3.43115 8.67494 -28.1961
LeftUpLeg  -31.5371 11.9449 -21.3331
LeftLeg  43.7188 10.5621 11.0212
LeftFoot  -13.6543 0.501238 20.4071
LeftToes  1.06246e-005 4.65855e-005 -8.18502e-006
328
root  -16.9451 35.4293 21.1852 177.068 32.0784 178.518
RightUpLeg  -30.0444 -13.2645 -15.2776
RightLeg  75.8145 -2.93589 -14.5192
RightFoot  -7.69214 -0.212843 5.08395
RightToes  0.000482159 0.542163 -0.142577
Spine  43.1348 0.123171 11.3622
Spine1  -4.43487 4.37512 1.11753
HEad  -50.0018 35.0033 -28.4388
LeftShoulder1  10.7614 -15.5998 -49.1834
LeftArm  -12.7225 10.7779 -24.7212
LeftForeArm  60.5496 -58.0843 -12.856
LeftHand  -0.25398 0.0180481 5.50724
RightShoulder  5.17 10.2972 31.513
RightArm  -11.4717 -5.40902 35.4891
RightForeArm  35.3767 75.2578 45.234
RightHand  -3.77276 9.34669 -29.519
LeftUpLeg  -32.3611 12.6339 -19.9012
LeftLeg  44.7952 9.36251 10.2172
LeftFoot  -14.2235 0.606886 20.4675
LeftToes  1.06246e-005 4.65855e-005 -8.18502e-006
329
root  -15.9262 35.5624 21.5073 179.054 30.8781 178.911
RightUpLeg  -33.6683 -11.9156 -18.9872
RightLeg  64.4612 -5.81838 -13.8154
RightFoot  -7.08981 -0.213802 4.67804
RightToes  0.000482159 0.542163 -0.142577
Spine  45.6941 -1.21799 10.8735
Spine1  -5.82941 2.97428 1.42332
HEad  -47.1026 33.7732 -27.7601
LeftShoulder1  10.6416 -15.6607 -48.4779
LeftArm  -11.5968 9.35921 -26.3875
LeftForeArm  71.0322 -67.1591 -19.0499
LeftHand  -0.25398 0.0180481 5.50724
RightShoulder  5.08195 10.3238 30.7984
RightArm  -12.0378 -2.93108 34.8738
RightForeArm  30.5374 74.0438 40.8866
RightHand  -3.99936 9.78321 -30.3392
LeftUpLeg  -34.2511 12.059 -18.0543
LeftLeg  46.056 8.3014 9.52534
LeftFoot  -14.807 0.67822 19.2522
LeftToes  1.06246e-005 4.65855e-005 -8.18502e-006
330
root  -14.7804 35.6748 21.7741 -178.805 29.5017 179.657
RightUpLeg  -34.362 -11.341 -21.1098
RightLeg  48.0458 -7.56752 -9.37816
RightFoot  -2.22716 -0.537408 6.16423
RightToes  0.000482159 0.542163 -0.142577
Spine  47.8714 -2.21872 10.8372
Spine1  -6.68765 2.12439 1.60772
HEad  -44.8604 31.2727 -26.9936
LeftShoulder1  10.6746 -15.816 -48.2346
LeftArm  -11.0007 6.89694 -27.8287
LeftForeArm  79.3465 -73.4641 -27.5888
LeftHand  -0.25398 0.0180481 5.50724
RightShoulder  5.07349 10.379 30.5887
RightArm  -13.6811 -1.98809 33.2909
RightForeArm  30.0521 73.9162 40.5285
RightHand  -4.27883 10.4287 -31.0887
LeftUpLeg  -36.3764 11.1744 -15.5894
LeftLeg  47.9772 6.95137 8.61504
LeftFoot  -15.0676 0.626774 16.3549
LeftToes  1.06246e-005 4.65855e-005 -8.18502e-006
331
root  -13.3814 35.6054 22.0228 -177.296 28.0851 -179.963
RightUpLeg  -32.8059 -10.6007 -22.2082
RightLeg  32.3263 -6.56998 -4.68259
RightFoot  5.31397 -1.66521 11.5133
RightToes  0.000482159 0.542163 -0.142577
Spine  49.7022 -2.478 9.93053
Spine1  -6.76292 2.0197 1.2546
HEad  -43.2364 28.5905 -25.5081
LeftShoulder1  10.75 -16.0674 -47.9473
LeftArm  -10.8817 3.45026 -29.3325
LeftForeArm  83.9144 -76.0482 -34.1939
LeftHand  -0.25398 0.0180481 5.50724
RightShoulder  5.11845 10.4983 30.5981
RightArm  -15.9043 -2.5876 31.5125
RightForeArm  29.917 74.012 40.9495
RightHand  -4.65282 11.3338 -31.925
LeftUpLeg  -38.3564 10.3904 -13.0901
LeftLeg  50.7499 5.79694 8.02168
LeftFoot  -15.8953 0.678105 14.5488
LeftToes  1.06246e-005 4.65855e-005 -8.18502e-006
332
root  -11.9241 35.4174 22.2611 -176.361 26.5606 -179.777
RightUpLeg  -32.4819 -11.6103 -21.6314
RightLeg  26.5404 -3.77608 -2.20753
RightFoot  9.32493 -2.93337 16.4773
RightToes  0.000482159 0.542163 -0.142577
Spine  51.0712 -2.43748 8.59188
Spine1  -6.87321 1.79884 1.12748
HEad  -42.4483 27.1137 -23.9271
LeftShoulder1  10.6653 -16.229 -47.1651
LeftArm  -11.5238 0.442869 -30.774
LeftForeArm  86.7554 -76.9135 -37.0422
LeftHand  -0.25398 0.0180481 5.50724
RightShoulder  5.16996 10.5741 30.7693
RightArm  -17.6061 -3.57364 30.465
RightForeArm  26.4094 73.1019 38.4281
RightHand  -5.0463 12.2714 -32.7346
LeftUpLeg  -39.8607 8.90656 -10.4134
LeftLeg  53.6673 5.2546 8.12817
LeftFoot  -17.2893 0.79741 13.2896
LeftToes  1.06246e-005 4.65855e-005 -8.18502e-006
